<svg width="110" height="80" viewBox="0 0 110 80" fill="none" xmlns="http://www.w3.org/2000/svg">
<path d="M0.500264 20L41 20L97.9996 53.5L97.9993 79.9998L0.500264 20Z" fill="#FFAA5B"/>
<path d="M34.6792 31.8214L38.5842 25.686L40.9329 27.1808C41.3763 27.463 41.7003 27.7674 41.9049 28.0941C42.1128 28.42 42.2133 28.7492 42.2066 29.0817C42.2019 29.4154 42.1029 29.7341 41.9097 30.0377C41.7508 30.2873 41.5668 30.4705 41.3578 30.5872C41.1501 30.702 40.9304 30.7628 40.6987 30.7697C40.467 30.7766 40.2361 30.7404 40.0058 30.6612L39.9677 30.7212C40.1778 30.8717 40.3439 31.0714 40.4661 31.3204C40.5915 31.5686 40.6483 31.8432 40.6362 32.1443C40.6242 32.4453 40.5191 32.7516 40.3208 33.0632C40.1187 33.3808 39.86 33.6174 39.5448 33.7732C39.2308 33.927 38.8727 33.9782 38.4703 33.927C38.068 33.8758 37.6321 33.7008 37.1628 33.4021L34.6792 31.8214ZM36.3818 31.6001L37.5771 32.3609C37.9805 32.6177 38.3201 32.7257 38.5957 32.6851C38.8746 32.6437 39.0916 32.5012 39.2467 32.2575C39.3623 32.0757 39.4216 31.8834 39.4246 31.6804C39.4287 31.4754 39.3746 31.2782 39.2623 31.0888C39.1512 30.8974 38.9808 30.7286 38.7511 30.5825L37.5258 29.8026L36.3818 31.6001ZM38.0349 29.0027L39.1343 29.7025C39.3261 29.8245 39.5211 29.8995 39.7194 29.9275C39.9189 29.9535 40.1039 29.9295 40.2744 29.8556C40.4482 29.781 40.5923 29.6538 40.7067 29.4741C40.858 29.2364 40.8986 28.9873 40.8288 28.7267C40.7609 28.4674 40.5631 28.2336 40.2356 28.0251L39.1122 27.3101L38.0349 29.0027ZM40.2238 35.3503L44.1287 29.2148L48.1192 31.7545L47.5262 32.6862L44.6472 30.8539L43.587 32.5196L46.2593 34.2204L45.6663 35.1521L42.9941 33.4513L41.9282 35.126L44.8312 36.9736L44.2382 37.9053L40.2238 35.3503ZM51.514 36.2851C51.6525 36.0056 51.6643 35.7269 51.5494 35.4489C51.4365 35.1722 51.2153 34.929 50.8857 34.7192C50.6541 34.5718 50.4331 34.4802 50.2228 34.4446C50.0126 34.409 49.8254 34.4232 49.6612 34.4871C49.4971 34.551 49.3651 34.6592 49.2652 34.8117C49.1838 34.9395 49.1422 35.0688 49.1404 35.1995C49.1406 35.3316 49.1706 35.4629 49.2305 35.5937C49.2917 35.7224 49.3702 35.8481 49.4661 35.9709C49.562 36.0936 49.6633 36.21 49.77 36.3201L50.2537 36.83C50.4511 37.0313 50.6274 37.246 50.7826 37.4739C50.9398 37.703 51.0588 37.9415 51.1396 38.1894C51.2224 38.4385 51.2508 38.6937 51.2248 38.955C51.1988 39.2163 51.1013 39.4797 50.9323 39.7453C50.7034 40.1048 50.4101 40.3629 50.0522 40.5196C49.6956 40.6743 49.2946 40.7179 48.8492 40.6505C48.4071 40.5824 47.9403 40.392 47.449 40.0793C46.9717 39.7755 46.6043 39.4378 46.3468 39.0663C46.0914 38.6961 45.9551 38.3062 45.9378 37.8968C45.9226 37.4886 46.0367 37.0757 46.28 36.6581L47.3735 37.3541C47.2534 37.5779 47.2062 37.7976 47.2318 38.0132C47.2574 38.2287 47.3408 38.4305 47.4821 38.6186C47.6253 38.808 47.8128 38.9765 48.0445 39.1239C48.2861 39.2777 48.5207 39.3765 48.7482 39.4203C48.979 39.4633 49.1876 39.453 49.3741 39.3893C49.5619 39.3236 49.7127 39.2035 49.8265 39.029C49.9262 38.8679 49.9632 38.7062 49.9374 38.5439C49.9129 38.3796 49.84 38.2097 49.7187 38.0343C49.6007 37.8582 49.4497 37.6722 49.2656 37.4765L48.6819 36.8525C48.2593 36.4011 47.985 35.9501 47.8592 35.4996C47.7367 35.0484 47.8152 34.6031 48.0949 34.1637C48.325 33.8022 48.6243 33.5479 48.9929 33.4009C49.3635 33.2551 49.7662 33.2154 50.2011 33.2817C50.6372 33.346 51.07 33.5148 51.4994 33.7881C51.9348 34.0652 52.268 34.3839 52.4989 34.7441C52.7331 35.1036 52.8589 35.477 52.8763 35.8641C52.895 36.2492 52.7974 36.6164 52.5835 36.9658L51.514 36.2851ZM53.8691 36.7232L54.4621 35.7915L59.3573 38.9071L58.7643 39.8388L56.8679 38.6318L53.556 43.8356L52.4535 43.1339L55.7655 37.9302L53.8691 36.7232ZM63.2144 41.362L61.7376 47.2075L61.8005 47.2476L66.4679 43.4327L67.6902 44.2106L61.6223 48.9694L60.2502 48.0962L61.9951 40.586L63.2144 41.362ZM64.6645 50.9057L63.4782 50.1506L69.5431 45.3899L70.9152 46.2632L69.1733 53.7753L67.9869 53.0202L69.4523 47.1001L69.4044 47.0695L64.6645 50.9057ZM66.2346 48.5248L69.4701 50.5841L68.9019 51.4768L65.6664 49.4176L66.2346 48.5248ZM69.9814 54.2896L73.8863 48.1542L74.9978 48.8616L71.6858 54.0653L74.3881 55.7852L73.7951 56.7169L69.9814 54.2896ZM82.5323 53.6569L83.6438 54.3643L81.0926 58.3728C80.8129 58.8121 80.4631 59.1325 80.0431 59.3338C79.6251 59.5364 79.1696 59.6128 78.6767 59.5628C78.185 59.5108 77.6895 59.326 77.1902 59.0082C76.6889 58.6891 76.3106 58.3179 76.0553 57.8944C75.8013 57.469 75.6776 57.024 75.6842 56.5596C75.6907 56.0951 75.8338 55.6432 76.1135 55.2038L78.6647 51.1954L79.7761 51.9028L77.2841 55.8183C77.1214 56.074 77.0324 56.3372 77.0171 56.6081C77.0038 56.8803 77.0638 57.1388 77.1971 57.3836C77.3316 57.6263 77.5397 57.8373 77.8213 58.0166C78.1029 58.1958 78.3821 58.295 78.659 58.314C78.9392 58.3324 79.1988 58.2773 79.4377 58.1488C79.6767 58.0202 79.8775 57.8281 80.0402 57.5725L82.5323 53.6569ZM80.9469 61.2687L84.8518 55.1332L88.8423 57.6729L88.2493 58.6046L85.3703 56.7723L84.3102 58.438L86.9824 60.1388L86.3895 61.0705L83.7172 59.3697L82.6513 61.0444L85.5543 62.892L84.9613 63.8237L80.9469 61.2687Z" fill="black"/>
</svg>
