<svg width="38" height="38" viewBox="0 0 38 38" fill="none" xmlns="http://www.w3.org/2000/svg">
<path fill-rule="evenodd" clip-rule="evenodd" d="M5.59316 13.7654C4.70491 12.9524 4.0985 11.6335 3.97975 9.5031C3.97515 9.39961 3.9919 9.29628 4.02895 9.19953C4.06599 9.10279 4.12255 9.0147 4.19509 8.94074C4.26764 8.86679 4.35462 8.80855 4.45064 8.76964C4.54665 8.73074 4.64964 8.712 4.75321 8.7146C6.07925 8.73835 7.09496 8.8286 7.87079 9.0574C8.20329 8.19527 8.86591 7.38223 9.85946 6.63885C9.98431 6.54569 10.1359 6.49536 10.2917 6.49536C10.4475 6.49536 10.5991 6.54569 10.724 6.63885C11.7262 7.38777 12.3912 8.20873 12.7213 9.07877C13.5201 8.8096 14.5437 8.73202 15.8326 8.71302C15.9361 8.71074 16.039 8.72976 16.1348 8.76891C16.2306 8.80806 16.3174 8.86649 16.3897 8.94058C16.462 9.01468 16.5183 9.10284 16.5551 9.19961C16.592 9.29638 16.6085 9.39968 16.6037 9.5031C16.4849 11.6335 15.8785 12.9524 14.9902 13.7646C15.4241 14.0884 15.6758 14.6299 15.584 15.2166C15.2538 17.282 14.8554 19.3359 14.3894 21.3749H9.50004V22.9583H14.0165C13.3531 25.6849 12.5718 28.3815 11.6747 31.0404C11.5837 31.3361 11.4002 31.5948 11.1513 31.7786C10.9024 31.9624 10.6011 32.0615 10.2917 32.0615C9.9823 32.0615 9.68103 31.9624 9.43212 31.7786C9.1832 31.5948 8.99975 31.3361 8.90866 31.0404C8.53502 29.9365 8.1824 28.8256 7.851 27.7083H9.50004V26.1249H7.395C6.64608 23.4404 6.08875 21.0029 5.68421 18.9999H8.70837V17.4166H5.37783C5.2195 16.5576 5.09521 15.8174 5.00021 15.2158C4.95642 14.9429 4.98859 14.6632 5.09318 14.4074C5.19777 14.1516 5.37075 13.9295 5.59316 13.7654ZM11.2409 9.64006L11.7808 11.0651L13.2256 10.579C13.6238 10.4452 14.163 10.3652 14.9309 10.3256C14.6957 11.8551 14.1297 12.5011 13.6127 12.8352C12.8757 13.3118 11.8014 13.4567 10.3155 13.4583H10.268C8.782 13.4567 7.70771 13.3118 6.97066 12.8344C6.4545 12.5011 5.88925 11.8559 5.65333 10.3296C6.44579 10.3731 7.00946 10.4539 7.42271 10.5758L8.82237 10.9891L9.34804 9.6274C9.49846 9.23552 9.79058 8.79615 10.2917 8.33381C10.7984 8.8009 11.0913 9.24502 11.2409 9.64006ZM26.6847 10.8513C25.1228 12.4133 24.9708 14.5935 25.8487 16.6463C29.6915 14.1312 34.0417 17.2424 34.0417 22.1666C34.0417 26.539 30.1427 30.0833 25.3334 30.0833C20.524 30.0833 16.625 26.539 16.625 22.1666C16.625 17.5813 20.3973 14.5666 24.0192 16.2054C23.4009 13.9887 23.7207 11.5757 25.5653 9.7319L26.6847 10.8513ZM31.643 23.9415C31.6702 23.84 31.6769 23.7341 31.6628 23.6299C31.6487 23.5258 31.6139 23.4255 31.5606 23.3349C31.5073 23.2443 31.4365 23.1652 31.3524 23.1023C31.2682 23.0394 31.1723 22.9938 31.0703 22.9683C30.9684 22.9429 30.8624 22.9379 30.7585 22.9538C30.6546 22.9698 30.5549 23.0062 30.4652 23.061C30.3756 23.1159 30.2977 23.188 30.2362 23.2733C30.1748 23.3585 30.1309 23.4552 30.1071 23.5576C29.9564 24.1865 29.6346 24.7615 29.1773 25.2188C28.7199 25.6762 28.145 25.998 27.516 26.1487C27.3136 26.2009 27.1402 26.331 27.0334 26.5107C26.9266 26.6903 26.8951 26.9049 26.9459 27.1076C26.9967 27.3103 27.1256 27.4847 27.3045 27.5928C27.4833 27.7009 27.6977 27.7339 27.9007 27.6845C28.8078 27.4641 29.6367 26.9984 30.2968 26.3383C30.9568 25.6783 31.4226 24.8494 31.643 23.9423V23.9415Z" fill="#E67E22"/>
<path d="M26.9165 14.2498C29.2915 14.2498 30.8748 12.6665 30.8748 10.2915C28.4998 10.2915 26.9165 11.8748 26.9165 14.2498Z" fill="#E67E22"/>
</svg>
